# xmcd
#
# Track frame offsets:
#	150
#	18824
#	35422
#	53494
#	75309
#	93311
#	120167
#	138805
#	156245
#	173327
#	191335
#	204264
#	220854
#	236617
#	254977
#	275310
#	291176
#	307315
#	323872
#	338562
#
# Disc length: 4732 seconds
#
# Revision: 1
# Processed by: cddbd v1.5.2PL0 Copyright (c) Steve Scherf et al.
# Submitted via: EasyCDDAExtractor 15.3.0.1
#
DISCID=07127a14
DTITLE=Emmanuel - Personalidad
DYEAR=2015
DGENRE=Latin
TTITLE0=Amor Sin Final
TTITLE1=Insoportablemente Bella
TTITLE2=Quiero Dormir Cansado
TTITLE3=Toda La Vida
TTITLE4=Esa Triste Guitarra
TTITLE5=La Ultima Luna
TTITLE6=Pobre Diablo
TTITLE7=Detenedla Ya
TTITLE8=Tengo Mucho Que Aprender De Ti
TTITLE9=Vamos A Amarnos Despacio
TTITLE10=Y Mis Lagrimas Bebi
TTITLE11=Es Mi Mujer
TTITLE12=Enredadito Por Tu Cintura
TTITLE13=El Dia Que Puedas
TTITLE14=Hay Que Arrimar El Alma
TTITLE15=Seguia Lloviendo Afuera
TTITLE16=Ven Con El Alma Desnuda
TTITLE17=No Te Quites La Ropa
TTITLE18=Con Que Derecho
TTITLE19=Al Final
EXTD=
EXTT0=
EXTT1=
EXTT2=
EXTT3=
EXTT4=
EXTT5=
EXTT6=
EXTT7=
EXTT8=
EXTT9=
EXTT10=
EXTT11=
EXTT12=
EXTT13=
EXTT14=
EXTT15=
EXTT16=
EXTT17=
EXTT18=
EXTT19=
PLAYORDER=
